<svg fill="none" height="50" viewBox="0 0 50 50" width="50" xmlns="http://www.w3.org/2000/svg" xmlns:xlink="http://www.w3.org/1999/xlink"><radialGradient id="a" cx="0" cy="0" gradientTransform="matrix(-12.26681536 26.19041645 -29.36505629 -13.75372263 29.6 36.9048)" gradientUnits="userSpaceOnUse" r="1"><stop offset="0" stop-color="#ff8a1e"/><stop offset="1" stop-color="#ef4141"/></radialGradient><radialGradient id="b" cx="0" cy="0" gradientTransform="matrix(-50.50249268 -23.80990246 29.73011771 -63.05968932 24.5132 25.5952)" gradientUnits="userSpaceOnUse" r="1"><stop offset="0" stop-color="#ffa901"/><stop offset="1" stop-color="#ffc701" stop-opacity="0"/></radialGradient><linearGradient id="c" gradientUnits="userSpaceOnUse" x1="40.2595" x2="-.435451" y1=".000002" y2="70.338"><stop offset="0" stop-color="#ffdf35"/><stop offset="1" stop-color="#ff8a01" stop-opacity="0"/></linearGradient><path d="m47.9215 12.2505c-.0424-.4201-.1927-.8228-.4369-1.1703-.2443-.3476-.5744-.6287-.9596-.817l-20.3859-9.998937c-.3541-.1737837-.7445-.264263-1.1404-.264263s-.7863.0904793-1.1403.264263l-20.38597 9.998937c-.38409.1894-.71322.4708-.95689.8182-.24366.3474-.39398.7495-.437 1.1691-.02803.2675-2.448863 26.9147 21.88686 37.5311.3252.144.6779.2184 1.0346.2184.3568 0 .7094-.0744 1.0346-.2184 24.3357-10.6164 21.9149-37.2611 21.8869-37.5311z" fill="#4633b9"/><path d="m47.9215 12.2505c-.0424-.4201-.1927-.8228-.4369-1.1703-.2443-.3476-.5744-.6287-.9596-.817l-20.3859-9.998937c-.3541-.1737837-.7445-.264263-1.1404-.264263s-.7863.0904793-1.1403.264263l-20.38597 9.998937c-.38409.1894-.71322.4708-.95689.8182-.24366.3474-.39398.7495-.437 1.1691-.02803.2675-2.448863 26.9147 21.88686 37.5311.3252.144.6779.2184 1.0346.2184.3568 0 .7094-.0744 1.0346-.2184 24.3357-10.6164 21.9149-37.2611 21.8869-37.5311z" fill="#1767f9"/><path d="m47.9215 12.2505c-.0424-.4201-.1927-.8228-.4369-1.1703-.2443-.3476-.5744-.6287-.9596-.817l-20.3859-9.998937c-.3541-.1737837-.7445-.264263-1.1404-.264263s-.7863.0904793-1.1403.264263l-20.38597 9.998937c-.38409.1894-.71322.4708-.95689.8182-.24366.3474-.39398.7495-.437 1.1691-.02803.2675-2.448863 26.9147 21.88686 37.5311.3252.144.6779.2184 1.0346.2184.3568 0 .7094-.0744 1.0346-.2184 24.3357-10.6164 21.9149-37.2611 21.8869-37.5311z" fill="#4bb1bc"/><path d="m47.9215 12.2505c-.0424-.4201-.1927-.8228-.4369-1.1703-.2443-.3476-.5744-.6287-.9596-.817l-20.3859-9.998937c-.3541-.1737837-.7445-.264263-1.1404-.264263s-.7863.0904793-1.1403.264263l-20.38597 9.998937c-.38409.1894-.71322.4708-.95689.8182-.24366.3474-.39398.7495-.437 1.1691-.02803.2675-2.448863 26.9147 21.88686 37.5311.3252.144.6779.2184 1.0346.2184.3568 0 .7094-.0744 1.0346-.2184 24.3357-10.6164 21.9149-37.2611 21.8869-37.5311z" fill="url(#a)"/><path d="m47.9215 12.2505c-.0424-.4201-.1927-.8228-.4369-1.1703-.2443-.3476-.5744-.6287-.9596-.817l-20.3859-9.998937c-.3541-.1737837-.7445-.264263-1.1404-.264263s-.7863.0904793-1.1403.264263l-20.38597 9.998937c-.38409.1894-.71322.4708-.95689.8182-.24366.3474-.39398.7495-.437 1.1691-.02803.2675-2.448863 26.9147 21.88686 37.5311.3252.144.6779.2184 1.0346.2184.3568 0 .7094-.0744 1.0346-.2184 24.3357-10.6164 21.9149-37.2611 21.8869-37.5311z" fill="url(#b)" fill-opacity=".5"/><path d="m47.9215 12.2505c-.0424-.4201-.1927-.8228-.4369-1.1703-.2443-.3476-.5744-.6287-.9596-.817l-20.3859-9.998937c-.3541-.1737837-.7445-.264263-1.1404-.264263s-.7863.0904793-1.1403.264263l-20.38597 9.998937c-.38409.1894-.71322.4708-.95689.8182-.24366.3474-.39398.7495-.437 1.1691-.02803.2675-2.448863 26.9147 21.88686 37.5311.3252.144.6779.2184 1.0346.2184.3568 0 .7094-.0744 1.0346-.2184 24.3357-10.6164 21.9149-37.2611 21.8869-37.5311z" fill="url(#c)"/><g stroke-width="3"><path d="m43.4412 14.6882-.0004-.0044c-.0107-.1074-.0486-.2108-.1109-.3007l1.2331-.8542-1.2331.8542c-.0622-.0899-.147-.1634-.2468-.2129l-.0018-.0009-17.2837-8.59907-.0005-.00021c-.0922-.04593-.1943-.07002-.2982-.07002-.1038 0-.206.02409-.2982.07002l-.0004.00021-17.281 8.59777c-.00028.0001-.00057.0002-.00086.0004-.10011.0502-.18506.1243-.24758.2147-.06267.0907-.10093.195-.11188.3032l-.00033.0033m35.88255-.0014-35.88255.0014m35.88255-.0014.0001.0015c.0047.0538.1254 1.4369.0064 3.6214-.1219 2.2365-.4937 5.2864-1.4835 8.5962-1.9739 6.601-6.3826 14.1915-16.1941 18.5332l-.0074.0033c-.0823.037-.1719.0562-.2627.0562s-.1804-.0192-.2627-.0562l-.0075-.0033m18.2114-30.7523-18.2114 30.7523m-17.67115-30.7509c.00004-.0004-.00002.0003-.00016.0019m.00016-.0019-.00016.0019m17.67131 30.749c-9.8113-4.3417-14.2201-11.9326-16.19404-18.5339m16.19404 18.5339-16.19404-18.5339m0 0c-.98976-3.3101-1.36156-6.36-1.48345-8.5964m1.48345 8.5964-1.48345-8.5964m0 0c-.1187-2.1781.00099-3.5588.00618-3.6187m-.00618 3.6187.00618-3.6187" stroke="#ffc530"/><path d="m41.4458 14.9476.0004.0044c0-.0005 0 .0002.0002.0019.0049.0579.1145 1.337.0054 3.3537-.1122 2.0751-.4545 4.9045-1.3655 7.9746-1.8168 6.1229-5.8709 13.1522-14.8876 17.1731l-.0075.0034c-.0602.0273-.1254.0413-.1912.0413s-.131-.014-.1912-.0413l-.0076-.0034c-9.0166-4.0209-13.0707-11.0507-14.88751-17.1738-1.8244-6.1486-1.36186-11.3079-1.36005-11.3281h.00001l.00033-.0033c.00854-.0851.03835-.1664.08633-.2363.04777-.0696.11191-.1256.18621-.1633.00031-.0001.00061-.0003.00091-.0004l15.95147-7.99779.0004-.00022c.0684-.03432.1436-.05209.2197-.05209s.1513.01777.2197.05209l.0004.00022 15.9543 7.99919.0017.0009c.074.0369.1379.0924.1854.1614l1.2361-.8497-1.2361.8498c.0475.0691.077.1495.0853.2337zm-15.6361 29.8777c19.0453-8.4931 17.1508-29.8089 17.1288-30.0249h-35.87703c-.02194.214-1.91651 21.5318 17.12883 30.0249.2545.1151.5305.1747.8097.1747s.5552-.0596.8097-.1747z" stroke="#000"/><path d="m17 22.6587 5.9188 5.3413 11.0812-10" stroke="#000"/></g></svg>