<svg fill="none" height="26" viewBox="0 0 33 26" width="33" xmlns="http://www.w3.org/2000/svg"><path d="m2 13v-1.5h-1.5v1.5zm0 11h-1.5v1.5h1.5zm0-9.5h9v-3h-9zm10.5 1.5v5h3v-5zm-1.5 6.5h-9v3h9zm-7.5 1.5v-11h-3v11zm9-3c0 .8284-.6716 1.5-1.5 1.5v3c2.4853 0 4.5-2.0147 4.5-4.5zm-1.5-6.5c.8284 0 1.5.6716 1.5 1.5h3c0-2.4853-2.0147-4.5-4.5-4.5z" fill="#000"/><g stroke="#000" stroke-width="3"><path d="m14 2h-12v13"/><path d="m19 13h9c1.6569 0 3 1.3431 3 3v5c0 1.6569-1.3431 3-3 3h-9z"/><path d="m31 2h-12v13"/></g></svg>