<svg fill="none" height="50" viewBox="0 0 50 50" width="50" xmlns="http://www.w3.org/2000/svg" xmlns:xlink="http://www.w3.org/1999/xlink"><linearGradient id="a"><stop offset="0" stop-color="#ff8a1e"/><stop offset="1" stop-color="#ef4141"/></linearGradient><radialGradient id="b" cx="0" cy="0" gradientTransform="matrix(-1.33331829 6.28571493 -3.72446196 -.79002839 3 8.85714)" gradientUnits="userSpaceOnUse" r="1" xlink:href="#a"/><linearGradient id="c"><stop offset="0" stop-color="#ffa901"/><stop offset="1" stop-color="#ffc701" stop-opacity="0"/></linearGradient><radialGradient id="d" cx="0" cy="0" gradientTransform="matrix(-5.48939976 -5.71430268 9.24168554 -8.87795226 2.44709 6.14286)" gradientUnits="userSpaceOnUse" r="1" xlink:href="#c"/><linearGradient id="e"><stop offset="0" stop-color="#ffdf35"/><stop offset="1" stop-color="#ff8a01" stop-opacity="0"/></linearGradient><linearGradient id="f" gradientUnits="userSpaceOnUse" x1="4.15864" x2="-6.77772" xlink:href="#e" y1=".000001" y2="8.56098"/><radialGradient id="g" cx="0" cy="0" gradientTransform="matrix(-8.18222806 4.41101943 -3.53855582 -6.5638502 5.37013 45.1151)" gradientUnits="userSpaceOnUse" r="1" xlink:href="#a"/><radialGradient id="h" cx="0" cy="0" gradientTransform="matrix(-2.03901348 -13.48744307 20.85512459 -3.15284965 7.3072 41.6142)" gradientUnits="userSpaceOnUse" r="1" xlink:href="#c"/><linearGradient id="i" gradientUnits="userSpaceOnUse" x1="15.8812" x2="-7.75791" xlink:href="#e" y1="37.8812" y2="39.0617"/><radialGradient id="j" cx="0" cy="0" gradientTransform="matrix(9.29981202 18.26751211 -21.55902398 10.97548856 26.5127 28.3033)" gradientUnits="userSpaceOnUse" r="1" xlink:href="#a"/><radialGradient id="k" cx="0" cy="0" gradientTransform="matrix(38.28801061 -16.60687769 19.62540564 45.24738204 30.3691 20.4151)" gradientUnits="userSpaceOnUse" r="1" xlink:href="#c"/><radialGradient id="l" cx="0" cy="0" gradientTransform="matrix(44.96763515 -8.34497467 7.18301987 38.70633878 30.3692 18.7544)" gradientUnits="userSpaceOnUse" r="1" xlink:href="#e"/><radialGradient id="m" cx="0" cy="0" gradientTransform="matrix(6.83808506 13.43197061 -15.85219206 8.07019617 27.9358 25.6054)" gradientUnits="userSpaceOnUse" r="1" xlink:href="#a"/><radialGradient id="n" cx="0" cy="0" gradientTransform="matrix(28.15289501 -12.21091607 14.43042425 33.27008528 30.7714 19.8052)" gradientUnits="userSpaceOnUse" r="1" xlink:href="#c"/><radialGradient id="o" cx="0" cy="0" gradientTransform="matrix(23.59222223 -4.76593996 4.10233834 20.30728013 30.7714 18.5841)" gradientUnits="userSpaceOnUse" r="1" xlink:href="#e"/><radialGradient id="p" cx="0" cy="0" gradientTransform="matrix(7.46666225 14.66667744 -17.30933327 8.81201252 27.2 26.6667)" gradientUnits="userSpaceOnUse" r="1" xlink:href="#a"/><radialGradient id="q" cx="0" cy="0" gradientTransform="matrix(30.74075588 -13.33336375 15.7568846 36.32830784 30.2963 20.3333)" gradientUnits="userSpaceOnUse" r="1" xlink:href="#c"/><linearGradient id="r" gradientUnits="userSpaceOnUse" x1="26.5" x2="34.6662" y1="14.5" y2="25.7424"><stop offset="0" stop-color="#ffdf35"/><stop offset="1" stop-color="#ffdf35" stop-opacity="0"/></linearGradient><clipPath id="s"><path d="m0 0h50v50h-50z" transform="matrix(-1 0 0 1 50 0)"/></clipPath><g clip-path="url(#s)"><rect fill="#4633b9" height="12" rx="2.5" transform="matrix(-.707107 -.707107 -.707107 .707107 22 32)" width="5"/><rect fill="#1767f9" height="12" rx="2.5" transform="matrix(-.707107 -.707107 -.707107 .707107 22 32)" width="5"/><rect fill="#4bb1bc" height="12" rx="2.5" transform="matrix(-.707107 -.707107 -.707107 .707107 22 32)" width="5"/><rect fill="url(#b)" height="12" rx="2.5" transform="matrix(-.707107 -.707107 -.707107 .707107 22 32)" width="5"/><rect fill="url(#d)" fill-opacity=".5" height="12" rx="2.5" transform="matrix(-.707107 -.707107 -.707107 .707107 22 32)" width="5"/><rect fill="url(#f)" height="12" rx="2.5" transform="matrix(-.707107 -.707107 -.707107 .707107 22 32)" width="5"/><g clip-rule="evenodd" fill-rule="evenodd"><path d="m12.6359 34.6359c-.7749-.7749-1.8514-1.1695-2.94351-1.0791-.87935.0728-1.70436.4552-2.32828 1.0791l-5.84939 5.8494c-1.952622 1.9526-1.952623 5.1184 0 7.0711 1.95262 1.9526 5.11845 1.9526 7.07107-.0001l5.84941-5.8493c.6239-.624 1.0063-1.449 1.0791-2.3283.0904-1.0921-.3043-2.1687-1.0791-2.9435z" fill="#4633b9"/><path d="m12.6359 34.6359c-.7749-.7749-1.8514-1.1695-2.94351-1.0791-.87935.0728-1.70436.4552-2.32828 1.0791l-5.84939 5.8494c-1.952622 1.9526-1.952623 5.1184 0 7.0711 1.95262 1.9526 5.11845 1.9526 7.07107-.0001l5.84941-5.8493c.6239-.624 1.0063-1.449 1.0791-2.3283.0904-1.0921-.3043-2.1687-1.0791-2.9435z" fill="#1767f9"/><path d="m12.6359 34.6359c-.7749-.7749-1.8514-1.1695-2.94351-1.0791-.87935.0728-1.70436.4552-2.32828 1.0791l-5.84939 5.8494c-1.952622 1.9526-1.952623 5.1184 0 7.0711 1.95262 1.9526 5.11845 1.9526 7.07107-.0001l5.84941-5.8493c.6239-.624 1.0063-1.449 1.0791-2.3283.0904-1.0921-.3043-2.1687-1.0791-2.9435z" fill="#4bb1bc"/><path d="m12.6359 34.6359c-.7749-.7749-1.8514-1.1695-2.94351-1.0791-.87935.0728-1.70436.4552-2.32828 1.0791l-5.84939 5.8494c-1.952622 1.9526-1.952623 5.1184 0 7.0711 1.95262 1.9526 5.11845 1.9526 7.07107-.0001l5.84941-5.8493c.6239-.624 1.0063-1.449 1.0791-2.3283.0904-1.0921-.3043-2.1687-1.0791-2.9435z" fill="url(#g)"/><path d="m12.6359 34.6359c-.7749-.7749-1.8514-1.1695-2.94351-1.0791-.87935.0728-1.70436.4552-2.32828 1.0791l-5.84939 5.8494c-1.952622 1.9526-1.952623 5.1184 0 7.0711 1.95262 1.9526 5.11845 1.9526 7.07107-.0001l5.84941-5.8493c.6239-.624 1.0063-1.449 1.0791-2.3283.0904-1.0921-.3043-2.1687-1.0791-2.9435z" fill="url(#h)" fill-opacity=".5"/><path d="m12.6359 34.6359c-.7749-.7749-1.8514-1.1695-2.94351-1.0791-.87935.0728-1.70436.4552-2.32828 1.0791l-5.84939 5.8494c-1.952622 1.9526-1.952623 5.1184 0 7.0711 1.95262 1.9526 5.11845 1.9526 7.07107-.0001l5.84941-5.8493c.6239-.624 1.0063-1.449 1.0791-2.3283.0904-1.0921-.3043-2.1687-1.0791-2.9435z" fill="url(#i)"/></g><path d="m33.7829 3.42623c-2.4899-.56831-5.0759-.56831-7.5658 0-2.4898.5683-4.8197 1.69029-6.8164 3.28264-1.9968 1.59234-3.6091 3.61413-4.7172 5.91513s-1.6835 4.8221-1.6835 7.376.5754 5.075 1.6835 7.376 2.7204 4.3228 4.7172 5.9151c1.9967 1.5924 4.3266 2.7144 6.8164 3.2827 2.4899.5683 5.0759.5683 7.5658 0 2.4898-.5683 4.8197-1.6903 6.8164-3.2827 1.9968-1.5923 3.6091-3.6141 4.7172-5.9151s1.6835-4.8221 1.6835-7.376-.5754-5.075-1.6835-7.376-2.7204-4.32279-4.7172-5.91514c-1.9967-1.59234-4.3266-2.71433-6.8164-3.28263z" fill="#4633b9"/><path d="m33.7829 3.42623c-2.4899-.56831-5.0759-.56831-7.5658 0-2.4898.5683-4.8197 1.69029-6.8164 3.28264-1.9968 1.59234-3.6091 3.61413-4.7172 5.91513s-1.6835 4.8221-1.6835 7.376.5754 5.075 1.6835 7.376 2.7204 4.3228 4.7172 5.9151c1.9967 1.5924 4.3266 2.7144 6.8164 3.2827 2.4899.5683 5.0759.5683 7.5658 0 2.4898-.5683 4.8197-1.6903 6.8164-3.2827 1.9968-1.5923 3.6091-3.6141 4.7172-5.9151s1.6835-4.8221 1.6835-7.376-.5754-5.075-1.6835-7.376-2.7204-4.32279-4.7172-5.91514c-1.9967-1.59234-4.3266-2.71433-6.8164-3.28263z" fill="#1767f9"/><path d="m33.7829 3.42623c-2.4899-.56831-5.0759-.56831-7.5658 0-2.4898.5683-4.8197 1.69029-6.8164 3.28264-1.9968 1.59234-3.6091 3.61413-4.7172 5.91513s-1.6835 4.8221-1.6835 7.376.5754 5.075 1.6835 7.376 2.7204 4.3228 4.7172 5.9151c1.9967 1.5924 4.3266 2.7144 6.8164 3.2827 2.4899.5683 5.0759.5683 7.5658 0 2.4898-.5683 4.8197-1.6903 6.8164-3.2827 1.9968-1.5923 3.6091-3.6141 4.7172-5.9151s1.6835-4.8221 1.6835-7.376-.5754-5.075-1.6835-7.376-2.7204-4.32279-4.7172-5.91514c-1.9967-1.59234-4.3266-2.71433-6.8164-3.28263z" fill="#4bb1bc"/><path d="m33.7829 3.42623c-2.4899-.56831-5.0759-.56831-7.5658 0-2.4898.5683-4.8197 1.69029-6.8164 3.28264-1.9968 1.59234-3.6091 3.61413-4.7172 5.91513s-1.6835 4.8221-1.6835 7.376.5754 5.075 1.6835 7.376 2.7204 4.3228 4.7172 5.9151c1.9967 1.5924 4.3266 2.7144 6.8164 3.2827 2.4899.5683 5.0759.5683 7.5658 0 2.4898-.5683 4.8197-1.6903 6.8164-3.2827 1.9968-1.5923 3.6091-3.6141 4.7172-5.9151s1.6835-4.8221 1.6835-7.376-.5754-5.075-1.6835-7.376-2.7204-4.32279-4.7172-5.91514c-1.9967-1.59234-4.3266-2.71433-6.8164-3.28263z" fill="url(#j)"/><path d="m33.7829 3.42623c-2.4899-.56831-5.0759-.56831-7.5658 0-2.4898.5683-4.8197 1.69029-6.8164 3.28264-1.9968 1.59234-3.6091 3.61413-4.7172 5.91513s-1.6835 4.8221-1.6835 7.376.5754 5.075 1.6835 7.376 2.7204 4.3228 4.7172 5.9151c1.9967 1.5924 4.3266 2.7144 6.8164 3.2827 2.4899.5683 5.0759.5683 7.5658 0 2.4898-.5683 4.8197-1.6903 6.8164-3.2827 1.9968-1.5923 3.6091-3.6141 4.7172-5.9151s1.6835-4.8221 1.6835-7.376-.5754-5.075-1.6835-7.376-2.7204-4.32279-4.7172-5.91514c-1.9967-1.59234-4.3266-2.71433-6.8164-3.28263z" fill="url(#k)" fill-opacity=".5"/><path d="m33.7829 3.42623c-2.4899-.56831-5.0759-.56831-7.5658 0-2.4898.5683-4.8197 1.69029-6.8164 3.28264-1.9968 1.59234-3.6091 3.61413-4.7172 5.91513s-1.6835 4.8221-1.6835 7.376.5754 5.075 1.6835 7.376 2.7204 4.3228 4.7172 5.9151c1.9967 1.5924 4.3266 2.7144 6.8164 3.2827 2.4899.5683 5.0759.5683 7.5658 0 2.4898-.5683 4.8197-1.6903 6.8164-3.2827 1.9968-1.5923 3.6091-3.6141 4.7172-5.9151s1.6835-4.8221 1.6835-7.376-.5754-5.075-1.6835-7.376-2.7204-4.32279-4.7172-5.91514c-1.9967-1.59234-4.3266-2.71433-6.8164-3.28263z" fill="url(#l)"/><path d="m32.9477 8.77579c-1.6111-.36772-3.2843-.36772-4.8954 0-1.6111.36773-3.1187 1.09372-4.4107 2.12411-1.292 1.0303-2.3352 2.3385-3.0523 3.8274-.717 1.4889-1.0893 3.1202-1.0893 4.7727s.3723 3.2838 1.0893 4.7727c.7171 1.4889 1.7603 2.7971 3.0523 3.8274 1.292 1.0304 2.7996 1.7564 4.4107 2.1241s3.2843.3677 4.8954 0 3.1187-1.0937 4.4107-2.1241c1.292-1.0303 2.3352-2.3385 3.0523-3.8274.717-1.4889 1.0893-3.1202 1.0893-4.7727s-.3723-3.2838-1.0893-4.7727c-.7171-1.4889-1.7603-2.7971-3.0523-3.8274-1.292-1.03039-2.7996-1.75638-4.4107-2.12411z" stroke="#4633b9" stroke-width="3"/><path d="m32.9477 8.77579c-1.6111-.36772-3.2843-.36772-4.8954 0-1.6111.36773-3.1187 1.09372-4.4107 2.12411-1.292 1.0303-2.3352 2.3385-3.0523 3.8274-.717 1.4889-1.0893 3.1202-1.0893 4.7727s.3723 3.2838 1.0893 4.7727c.7171 1.4889 1.7603 2.7971 3.0523 3.8274 1.292 1.0304 2.7996 1.7564 4.4107 2.1241s3.2843.3677 4.8954 0 3.1187-1.0937 4.4107-2.1241c1.292-1.0303 2.3352-2.3385 3.0523-3.8274.717-1.4889 1.0893-3.1202 1.0893-4.7727s-.3723-3.2838-1.0893-4.7727c-.7171-1.4889-1.7603-2.7971-3.0523-3.8274-1.292-1.03039-2.7996-1.75638-4.4107-2.12411z" stroke="#1767f9" stroke-width="3"/><path d="m32.9477 8.77579c-1.6111-.36772-3.2843-.36772-4.8954 0-1.6111.36773-3.1187 1.09372-4.4107 2.12411-1.292 1.0303-2.3352 2.3385-3.0523 3.8274-.717 1.4889-1.0893 3.1202-1.0893 4.7727s.3723 3.2838 1.0893 4.7727c.7171 1.4889 1.7603 2.7971 3.0523 3.8274 1.292 1.0304 2.7996 1.7564 4.4107 2.1241s3.2843.3677 4.8954 0 3.1187-1.0937 4.4107-2.1241c1.292-1.0303 2.3352-2.3385 3.0523-3.8274.717-1.4889 1.0893-3.1202 1.0893-4.7727s-.3723-3.2838-1.0893-4.7727c-.7171-1.4889-1.7603-2.7971-3.0523-3.8274-1.292-1.03039-2.7996-1.75638-4.4107-2.12411z" stroke="#4bb1bc" stroke-width="3"/><path d="m32.9477 8.77579c-1.6111-.36772-3.2843-.36772-4.8954 0-1.6111.36773-3.1187 1.09372-4.4107 2.12411-1.292 1.0303-2.3352 2.3385-3.0523 3.8274-.717 1.4889-1.0893 3.1202-1.0893 4.7727s.3723 3.2838 1.0893 4.7727c.7171 1.4889 1.7603 2.7971 3.0523 3.8274 1.292 1.0304 2.7996 1.7564 4.4107 2.1241s3.2843.3677 4.8954 0 3.1187-1.0937 4.4107-2.1241c1.292-1.0303 2.3352-2.3385 3.0523-3.8274.717-1.4889 1.0893-3.1202 1.0893-4.7727s-.3723-3.2838-1.0893-4.7727c-.7171-1.4889-1.7603-2.7971-3.0523-3.8274-1.292-1.03039-2.7996-1.75638-4.4107-2.12411z" stroke="url(#m)" stroke-width="3"/><path d="m32.9477 8.77579c-1.6111-.36772-3.2843-.36772-4.8954 0-1.6111.36773-3.1187 1.09372-4.4107 2.12411-1.292 1.0303-2.3352 2.3385-3.0523 3.8274-.717 1.4889-1.0893 3.1202-1.0893 4.7727s.3723 3.2838 1.0893 4.7727c.7171 1.4889 1.7603 2.7971 3.0523 3.8274 1.292 1.0304 2.7996 1.7564 4.4107 2.1241s3.2843.3677 4.8954 0 3.1187-1.0937 4.4107-2.1241c1.292-1.0303 2.3352-2.3385 3.0523-3.8274.717-1.4889 1.0893-3.1202 1.0893-4.7727s-.3723-3.2838-1.0893-4.7727c-.7171-1.4889-1.7603-2.7971-3.0523-3.8274-1.292-1.03039-2.7996-1.75638-4.4107-2.12411z" stroke="url(#n)" stroke-opacity=".5" stroke-width="3"/><path d="m32.9477 8.77579c-1.6111-.36772-3.2843-.36772-4.8954 0-1.6111.36773-3.1187 1.09372-4.4107 2.12411-1.292 1.0303-2.3352 2.3385-3.0523 3.8274-.717 1.4889-1.0893 3.1202-1.0893 4.7727s.3723 3.2838 1.0893 4.7727c.7171 1.4889 1.7603 2.7971 3.0523 3.8274 1.292 1.0304 2.7996 1.7564 4.4107 2.1241s3.2843.3677 4.8954 0 3.1187-1.0937 4.4107-2.1241c1.292-1.0303 2.3352-2.3385 3.0523-3.8274.717-1.4889 1.0893-3.1202 1.0893-4.7727s-.3723-3.2838-1.0893-4.7727c-.7171-1.4889-1.7603-2.7971-3.0523-3.8274-1.292-1.03039-2.7996-1.75638-4.4107-2.12411z" stroke="url(#o)" stroke-width="3"/><path d="m32.7815 7.8134c-1.8308-.41787-3.7322-.41787-5.563 0s-3.5439 1.24287-5.0121 2.4137c-1.4682 1.1708-2.6537 2.6574-3.4685 4.3494-.8148 1.6919-1.2379 3.5456-1.2379 5.4235s.4231 3.7316 1.2379 5.4235c.8148 1.692 2.0003 3.1786 3.4685 4.3494s3.1813 1.9958 5.0121 2.4137 3.7322.4179 5.563 0 3.5439-1.2429 5.0121-2.4137 2.6537-2.6574 3.4685-4.3494c.8148-1.6919 1.2379-3.5456 1.2379-5.4235s-.4231-3.7316-1.2379-5.4235c-.8148-1.692-2.0003-3.1786-3.4685-4.3494-1.4682-1.17083-3.1813-1.99583-5.0121-2.4137z" fill="#4633b9"/><path d="m32.7815 7.8134c-1.8308-.41787-3.7322-.41787-5.563 0s-3.5439 1.24287-5.0121 2.4137c-1.4682 1.1708-2.6537 2.6574-3.4685 4.3494-.8148 1.6919-1.2379 3.5456-1.2379 5.4235s.4231 3.7316 1.2379 5.4235c.8148 1.692 2.0003 3.1786 3.4685 4.3494s3.1813 1.9958 5.0121 2.4137 3.7322.4179 5.563 0 3.5439-1.2429 5.0121-2.4137 2.6537-2.6574 3.4685-4.3494c.8148-1.6919 1.2379-3.5456 1.2379-5.4235s-.4231-3.7316-1.2379-5.4235c-.8148-1.692-2.0003-3.1786-3.4685-4.3494-1.4682-1.17083-3.1813-1.99583-5.0121-2.4137z" fill="#1767f9"/><path d="m32.7815 7.8134c-1.8308-.41787-3.7322-.41787-5.563 0s-3.5439 1.24287-5.0121 2.4137c-1.4682 1.1708-2.6537 2.6574-3.4685 4.3494-.8148 1.6919-1.2379 3.5456-1.2379 5.4235s.4231 3.7316 1.2379 5.4235c.8148 1.692 2.0003 3.1786 3.4685 4.3494s3.1813 1.9958 5.0121 2.4137 3.7322.4179 5.563 0 3.5439-1.2429 5.0121-2.4137 2.6537-2.6574 3.4685-4.3494c.8148-1.6919 1.2379-3.5456 1.2379-5.4235s-.4231-3.7316-1.2379-5.4235c-.8148-1.692-2.0003-3.1786-3.4685-4.3494-1.4682-1.17083-3.1813-1.99583-5.0121-2.4137z" fill="#4bb1bc"/><path d="m32.7815 7.8134c-1.8308-.41787-3.7322-.41787-5.563 0s-3.5439 1.24287-5.0121 2.4137c-1.4682 1.1708-2.6537 2.6574-3.4685 4.3494-.8148 1.6919-1.2379 3.5456-1.2379 5.4235s.4231 3.7316 1.2379 5.4235c.8148 1.692 2.0003 3.1786 3.4685 4.3494s3.1813 1.9958 5.0121 2.4137 3.7322.4179 5.563 0 3.5439-1.2429 5.0121-2.4137 2.6537-2.6574 3.4685-4.3494c.8148-1.6919 1.2379-3.5456 1.2379-5.4235s-.4231-3.7316-1.2379-5.4235c-.8148-1.692-2.0003-3.1786-3.4685-4.3494-1.4682-1.17083-3.1813-1.99583-5.0121-2.4137z" fill="url(#p)"/><path d="m32.7815 7.8134c-1.8308-.41787-3.7322-.41787-5.563 0s-3.5439 1.24287-5.0121 2.4137c-1.4682 1.1708-2.6537 2.6574-3.4685 4.3494-.8148 1.6919-1.2379 3.5456-1.2379 5.4235s.4231 3.7316 1.2379 5.4235c.8148 1.692 2.0003 3.1786 3.4685 4.3494s3.1813 1.9958 5.0121 2.4137 3.7322.4179 5.563 0 3.5439-1.2429 5.0121-2.4137 2.6537-2.6574 3.4685-4.3494c.8148-1.6919 1.2379-3.5456 1.2379-5.4235s-.4231-3.7316-1.2379-5.4235c-.8148-1.692-2.0003-3.1786-3.4685-4.3494-1.4682-1.17083-3.1813-1.99583-5.0121-2.4137z" fill="url(#q)" fill-opacity=".5"/><path d="m32.7815 7.8134c-1.8308-.41787-3.7322-.41787-5.563 0s-3.5439 1.24287-5.0121 2.4137c-1.4682 1.1708-2.6537 2.6574-3.4685 4.3494-.8148 1.6919-1.2379 3.5456-1.2379 5.4235s.4231 3.7316 1.2379 5.4235c.8148 1.692 2.0003 3.1786 3.4685 4.3494s3.1813 1.9958 5.0121 2.4137 3.7322.4179 5.563 0 3.5439-1.2429 5.0121-2.4137 2.6537-2.6574 3.4685-4.3494c.8148-1.6919 1.2379-3.5456 1.2379-5.4235s-.4231-3.7316-1.2379-5.4235c-.8148-1.692-2.0003-3.1786-3.4685-4.3494-1.4682-1.17083-3.1813-1.99583-5.0121-2.4137z" fill="url(#r)"/><path d="m32.7815 7.8134c-1.8308-.41787-3.7322-.41787-5.563 0s-3.5439 1.24287-5.0121 2.4137c-1.4682 1.1708-2.6537 2.6574-3.4685 4.3494-.8148 1.6919-1.2379 3.5456-1.2379 5.4235s.4231 3.7316 1.2379 5.4235c.8148 1.692 2.0003 3.1786 3.4685 4.3494s3.1813 1.9958 5.0121 2.4137 3.7322.4179 5.563 0 3.5439-1.2429 5.0121-2.4137 2.6537-2.6574 3.4685-4.3494c.8148-1.6919 1.2379-3.5456 1.2379-5.4235s-.4231-3.7316-1.2379-5.4235c-.8148-1.692-2.0003-3.1786-3.4685-4.3494-1.4682-1.17083-3.1813-1.99583-5.0121-2.4137z" stroke="#000" stroke-width="3"/></g></svg>