<svg fill="none" height="26" viewBox="0 0 27 26" width="27" xmlns="http://www.w3.org/2000/svg" xmlns:xlink="http://www.w3.org/1999/xlink"><clipPath id="a"><path d="m.77771 0h26v26h-26z"/></clipPath><g clip-path="url(#a)" clip-rule="evenodd" fill="#000" fill-rule="evenodd"><path d="m7.77771 6c-.55228 0-1 .44772-1 1v9h13.99999v-9c0-.55228-.4477-1-1-1zm-3 1c0-1.65685 1.34315-3 3-3h11.99999c1.6569 0 3 1.34315 3 3v11h-17.99999z"/><path d="m5.39756 16h16.76044l3.8012 3.3789c1.0309.9163.3827 2.6211-.9965 2.6211h-22.36984c-1.37928 0-2.027431-1.7048-.99655-2.6211zm.7604 2-2.25 2h19.73964l-2.25-2z"/></g></svg>