<svg fill="none" height="54" viewBox="0 0 53 54" width="53" xmlns="http://www.w3.org/2000/svg" xmlns:xlink="http://www.w3.org/1999/xlink"><linearGradient id="a" gradientUnits="userSpaceOnUse" x1="24.4142" x2="11.6863" y1="42.0416" y2="29.3137"><stop offset="0" stop-color="#fc0"/><stop offset="1" stop-color="#ffa300"/></linearGradient><path d="m17.9598 37.9598-2.9699-2.9699 25.9641-25.96403 1.0872-3.06708 6.1828-4.20286 2.9698 2.96985-4.2028 6.18272-3.0671 1.0872z" fill="#000"/><g clip-rule="evenodd" fill-rule="evenodd"><path d="m25.5456 20.5456-2.513.2638c-2.0543.2156-3.9723 1.1303-5.4329 2.5909l-10.86315 10.8632c-3.51472 3.5147-3.51473 9.2132-.00001 12.7279 3.51476 3.5147 9.21326 3.5147 12.72796 0l10.8631-10.8632c1.4606-1.4606 2.3753-3.3785 2.5909-5.4329l.2638-2.513z" fill="#4633b9"/><path d="m25.5456 20.5456-2.513.2638c-2.0543.2156-3.9723 1.1303-5.4329 2.5909l-10.86315 10.8632c-3.51472 3.5147-3.51473 9.2132-.00001 12.7279 3.51476 3.5147 9.21326 3.5147 12.72796 0l10.8631-10.8632c1.4606-1.4606 2.3753-3.3785 2.5909-5.4329l.2638-2.513z" fill="#1767f9"/><path d="m25.5456 20.5456-2.513.2638c-2.0543.2156-3.9723 1.1303-5.4329 2.5909l-10.86315 10.8632c-3.51472 3.5147-3.51473 9.2132-.00001 12.7279 3.51476 3.5147 9.21326 3.5147 12.72796 0l10.8631-10.8632c1.4606-1.4606 2.3753-3.3785 2.5909-5.4329l.2638-2.513z" fill="#4bb1bc"/><path d="m25.5456 20.5456-2.513.2638c-2.0543.2156-3.9723 1.1303-5.4329 2.5909l-10.86315 10.8632c-3.51472 3.5147-3.51473 9.2132-.00001 12.7279 3.51476 3.5147 9.21326 3.5147 12.72796 0l10.8631-10.8632c1.4606-1.4606 2.3753-3.3785 2.5909-5.4329l.2638-2.513z" fill="#ffa300"/><path d="m25.5456 20.5456-2.513.2638c-2.0543.2156-3.9723 1.1303-5.4329 2.5909l-10.86315 10.8632c-3.51472 3.5147-3.51473 9.2132-.00001 12.7279 3.51476 3.5147 9.21326 3.5147 12.72796 0l10.8631-10.8632c1.4606-1.4606 2.3753-3.3785 2.5909-5.4329l.2638-2.513z" fill="url(#a)"/></g><path d="m31.4646 18.4646c-1.9652-1.9652-5.1616-1.113-5.5828 1.4883l7.6506 7.6505c2.6013-.4211 3.4534-3.6176 1.4883-5.5827z" fill="#ffa300"/><rect fill="#000" height="18" rx="1" transform="matrix(.70710678 .70710678 -.70710678 .70710678 25.242641 -6.941125)" width="2" x="21" y="27"/><rect fill="#000" height="18" rx="1" transform="matrix(.70710678 .70710678 -.70710678 .70710678 29.242641 -8.59798)" width="2" x="25" y="31"/></svg>