<svg fill="none" height="26" viewBox="0 0 27 26" width="27" xmlns="http://www.w3.org/2000/svg"><g fill="#000"><path clip-rule="evenodd" d="m10.8889 5c-1.10455 0-1.99998.89543-1.99998 2v12c0 1.1046.89543 2 1.99998 2h7c1.1046 0 2-.8954 2-2v-12c0-1.10457-.8954-2-2-2zm-3.99998 2c0-2.20914 1.79086-4 3.99998-4h7c2.2092 0 4 1.79086 4 4v12c0 2.2091-1.7908 4-4 4h-7c-2.20912 0-3.99998-1.7909-3.99998-4z" fill-rule="evenodd"/><path d="m18.8889 7c0 .55228-.4477 1-1 1s-1-.44772-1-1 .4477-1 1-1 1 .44772 1 1z"/></g></svg>