<svg fill="none" height="24" viewBox="0 0 21 24" width="21" xmlns="http://www.w3.org/2000/svg"><path clip-rule="evenodd" d="m14.8985.0714487c-1.0388.2081853-2.1008.7758203-2.8331 1.5144013-1.0317 1.04037-1.6512 2.46962-1.6081 3.7099l.0133.38244.4113-.00579c.9658-.01365 1.9104-.46529 2.8182-1.34732 1.1552-1.12244 1.7626-2.45486 1.7626-3.866916v-.458164l-.1254.00432186c-.0689.00239082-.2664.03259794-.4388.06712684zm-.7807 5.7010413c-.4916.09302-.9375.22138-1.6184.46607-.3135.1126-.8263.28805-1.1398.3898-.777.25232-.8528.244-2.27944-.25122-1.52848-.53053-1.83639-.60258-2.57581-.60267-1.96203-.00028-3.82646 1.07233-4.95589 2.85105-.43634.68718-.822801 1.71568-1.002879 2.66878-.09045.4788-.102713.6869-.101118 1.7173.001459.9769.018191 1.2733.100115 1.7777.340462 2.0962 1.161032 4.2392 2.259322 5.9005.94256 1.4257 1.90596 2.4861 2.67469 2.9438.47477.2827.78496.3665 1.35483.3664.56303-.0001.99107-.0979 1.81578-.4149 1.09711-.4217 1.6138-.525 2.4597-.4918.6762.0266 1.1722.1391 1.9396.4399 1.6355.6411 2.5717.6191 3.5995-.0847.9313-.6379 2.2883-2.4068 3.0959-4.0359.2678-.5401.6794-1.5429.6999-1.7051.0083-.0655-.0766-.1332-.3486-.2784-1.2533-.669-2.2427-1.8091-2.6429-3.0458-.2956-.9133-.3389-2.1786-.1053-3.0824.2944-1.139.9263-2.0488 1.9601-2.82241.2464-.18437.4715-.34313.5003-.35279.0658-.02211-.3316-.52998-.6583-.84147-.7444-.70976-1.7152-1.19914-2.8672-1.44548-.6238-.13338-1.6442-.16465-2.1641-.06626z" fill="#000" fill-rule="evenodd"/></svg>